<mxfile host="Electron" modified="2024-12-02T06:58:05.389Z" agent="Mozilla/5.0 (Windows NT 10.0; Win64; x64) AppleWebKit/537.36 (KHTML, like Gecko) draw.io/22.1.21 Chrome/120.0.6099.109 Electron/28.1.0 Safari/537.36" etag="JEmbIMQSRrUhaIrO1R6g" version="22.1.21" type="device">
  <diagram id="C5RBs43oDa-KdzZeNtuy" name="Page-1">
    <mxGraphModel dx="683" dy="1927" grid="1" gridSize="10" guides="1" tooltips="1" connect="1" arrows="1" fold="1" page="1" pageScale="1" pageWidth="827" pageHeight="1169" math="0" shadow="0">
      <root>
        <mxCell id="WIyWlLk6GJQsqaUBKTNV-0" />
        <mxCell id="WIyWlLk6GJQsqaUBKTNV-1" parent="WIyWlLk6GJQsqaUBKTNV-0" />
        <mxCell id="R4jumqrzH_voTdds1RlK-4" value="" style="edgeStyle=orthogonalEdgeStyle;rounded=0;orthogonalLoop=1;jettySize=auto;html=1;" edge="1" parent="WIyWlLk6GJQsqaUBKTNV-1" source="WIyWlLk6GJQsqaUBKTNV-3" target="R4jumqrzH_voTdds1RlK-3">
          <mxGeometry relative="1" as="geometry" />
        </mxCell>
        <mxCell id="WIyWlLk6GJQsqaUBKTNV-3" value="Hiển thị danh sách Footer" style="rounded=1;whiteSpace=wrap;html=1;fontSize=12;glass=0;strokeWidth=1;shadow=0;" parent="WIyWlLk6GJQsqaUBKTNV-1" vertex="1">
          <mxGeometry x="160" y="80" width="120" height="40" as="geometry" />
        </mxCell>
        <mxCell id="R4jumqrzH_voTdds1RlK-2" value="" style="edgeStyle=orthogonalEdgeStyle;rounded=0;orthogonalLoop=1;jettySize=auto;html=1;" edge="1" parent="WIyWlLk6GJQsqaUBKTNV-1" source="R4jumqrzH_voTdds1RlK-0" target="WIyWlLk6GJQsqaUBKTNV-3">
          <mxGeometry relative="1" as="geometry" />
        </mxCell>
        <mxCell id="R4jumqrzH_voTdds1RlK-0" value="" style="strokeWidth=2;html=1;shape=mxgraph.flowchart.start_2;whiteSpace=wrap;" vertex="1" parent="WIyWlLk6GJQsqaUBKTNV-1">
          <mxGeometry x="250" y="-10" width="50" height="50" as="geometry" />
        </mxCell>
        <mxCell id="R4jumqrzH_voTdds1RlK-1" value="" style="strokeWidth=2;html=1;shape=mxgraph.flowchart.start_2;whiteSpace=wrap;" vertex="1" parent="WIyWlLk6GJQsqaUBKTNV-1">
          <mxGeometry x="150" y="740" width="50" height="50" as="geometry" />
        </mxCell>
        <mxCell id="R4jumqrzH_voTdds1RlK-6" value="" style="edgeStyle=orthogonalEdgeStyle;rounded=0;orthogonalLoop=1;jettySize=auto;html=1;" edge="1" parent="WIyWlLk6GJQsqaUBKTNV-1" source="R4jumqrzH_voTdds1RlK-3" target="R4jumqrzH_voTdds1RlK-5">
          <mxGeometry relative="1" as="geometry" />
        </mxCell>
        <mxCell id="R4jumqrzH_voTdds1RlK-3" value="Thêm/cập nhật Footer" style="rounded=1;whiteSpace=wrap;html=1;fontSize=12;glass=0;strokeWidth=1;shadow=0;" vertex="1" parent="WIyWlLk6GJQsqaUBKTNV-1">
          <mxGeometry x="150" y="190" width="120" height="40" as="geometry" />
        </mxCell>
        <mxCell id="R4jumqrzH_voTdds1RlK-8" value="" style="edgeStyle=orthogonalEdgeStyle;rounded=0;orthogonalLoop=1;jettySize=auto;html=1;" edge="1" parent="WIyWlLk6GJQsqaUBKTNV-1" source="R4jumqrzH_voTdds1RlK-5" target="R4jumqrzH_voTdds1RlK-7">
          <mxGeometry relative="1" as="geometry" />
        </mxCell>
        <mxCell id="R4jumqrzH_voTdds1RlK-5" value="Nhập dữ liệu" style="rounded=1;whiteSpace=wrap;html=1;fontSize=12;glass=0;strokeWidth=1;shadow=0;" vertex="1" parent="WIyWlLk6GJQsqaUBKTNV-1">
          <mxGeometry x="150" y="290" width="120" height="40" as="geometry" />
        </mxCell>
        <mxCell id="R4jumqrzH_voTdds1RlK-11" value="" style="edgeStyle=orthogonalEdgeStyle;rounded=0;orthogonalLoop=1;jettySize=auto;html=1;" edge="1" parent="WIyWlLk6GJQsqaUBKTNV-1" source="R4jumqrzH_voTdds1RlK-7" target="R4jumqrzH_voTdds1RlK-9">
          <mxGeometry relative="1" as="geometry" />
        </mxCell>
        <mxCell id="R4jumqrzH_voTdds1RlK-7" value="Lưu&amp;nbsp;" style="rounded=1;whiteSpace=wrap;html=1;fontSize=12;glass=0;strokeWidth=1;shadow=0;" vertex="1" parent="WIyWlLk6GJQsqaUBKTNV-1">
          <mxGeometry x="150" y="380" width="120" height="40" as="geometry" />
        </mxCell>
        <mxCell id="R4jumqrzH_voTdds1RlK-14" style="edgeStyle=orthogonalEdgeStyle;rounded=0;orthogonalLoop=1;jettySize=auto;html=1;entryX=0.75;entryY=0;entryDx=0;entryDy=0;" edge="1" parent="WIyWlLk6GJQsqaUBKTNV-1" source="R4jumqrzH_voTdds1RlK-9" target="R4jumqrzH_voTdds1RlK-12">
          <mxGeometry relative="1" as="geometry" />
        </mxCell>
        <mxCell id="R4jumqrzH_voTdds1RlK-15" value="Thành công" style="edgeLabel;html=1;align=center;verticalAlign=middle;resizable=0;points=[];" vertex="1" connectable="0" parent="R4jumqrzH_voTdds1RlK-14">
          <mxGeometry x="-0.4115" y="5" relative="1" as="geometry">
            <mxPoint x="-1" as="offset" />
          </mxGeometry>
        </mxCell>
        <mxCell id="R4jumqrzH_voTdds1RlK-19" style="edgeStyle=orthogonalEdgeStyle;rounded=0;orthogonalLoop=1;jettySize=auto;html=1;entryX=0.25;entryY=0;entryDx=0;entryDy=0;" edge="1" parent="WIyWlLk6GJQsqaUBKTNV-1" source="R4jumqrzH_voTdds1RlK-9" target="R4jumqrzH_voTdds1RlK-18">
          <mxGeometry relative="1" as="geometry" />
        </mxCell>
        <mxCell id="R4jumqrzH_voTdds1RlK-20" value="không thành công" style="edgeLabel;html=1;align=center;verticalAlign=middle;resizable=0;points=[];" vertex="1" connectable="0" parent="R4jumqrzH_voTdds1RlK-19">
          <mxGeometry x="-0.1156" y="5" relative="1" as="geometry">
            <mxPoint as="offset" />
          </mxGeometry>
        </mxCell>
        <mxCell id="R4jumqrzH_voTdds1RlK-9" value="" style="strokeWidth=2;html=1;shape=mxgraph.flowchart.decision;whiteSpace=wrap;" vertex="1" parent="WIyWlLk6GJQsqaUBKTNV-1">
          <mxGeometry x="180" y="460" width="60" height="60" as="geometry" />
        </mxCell>
        <mxCell id="R4jumqrzH_voTdds1RlK-23" value="" style="edgeStyle=orthogonalEdgeStyle;rounded=0;orthogonalLoop=1;jettySize=auto;html=1;" edge="1" parent="WIyWlLk6GJQsqaUBKTNV-1" source="R4jumqrzH_voTdds1RlK-12" target="R4jumqrzH_voTdds1RlK-22">
          <mxGeometry relative="1" as="geometry" />
        </mxCell>
        <mxCell id="R4jumqrzH_voTdds1RlK-12" value="Thông báo thành công" style="rounded=1;whiteSpace=wrap;html=1;fontSize=12;glass=0;strokeWidth=1;shadow=0;" vertex="1" parent="WIyWlLk6GJQsqaUBKTNV-1">
          <mxGeometry x="294" y="520" width="120" height="40" as="geometry" />
        </mxCell>
        <mxCell id="R4jumqrzH_voTdds1RlK-18" value="Thông báo lỗi&amp;nbsp;" style="rounded=1;whiteSpace=wrap;html=1;fontSize=12;glass=0;strokeWidth=1;shadow=0;" vertex="1" parent="WIyWlLk6GJQsqaUBKTNV-1">
          <mxGeometry x="13.75" y="537.5" width="120" height="40" as="geometry" />
        </mxCell>
        <mxCell id="R4jumqrzH_voTdds1RlK-21" style="edgeStyle=orthogonalEdgeStyle;rounded=0;orthogonalLoop=1;jettySize=auto;html=1;entryX=0.02;entryY=0.705;entryDx=0;entryDy=0;entryPerimeter=0;exitX=0.25;exitY=1;exitDx=0;exitDy=0;" edge="1" parent="WIyWlLk6GJQsqaUBKTNV-1" source="R4jumqrzH_voTdds1RlK-18" target="R4jumqrzH_voTdds1RlK-1">
          <mxGeometry relative="1" as="geometry" />
        </mxCell>
        <mxCell id="R4jumqrzH_voTdds1RlK-24" style="edgeStyle=orthogonalEdgeStyle;rounded=0;orthogonalLoop=1;jettySize=auto;html=1;" edge="1" parent="WIyWlLk6GJQsqaUBKTNV-1" source="R4jumqrzH_voTdds1RlK-22" target="R4jumqrzH_voTdds1RlK-1">
          <mxGeometry relative="1" as="geometry" />
        </mxCell>
        <mxCell id="R4jumqrzH_voTdds1RlK-22" value="lấy lại danh sách Footer" style="rounded=1;whiteSpace=wrap;html=1;fontSize=12;glass=0;strokeWidth=1;shadow=0;" vertex="1" parent="WIyWlLk6GJQsqaUBKTNV-1">
          <mxGeometry x="294" y="660" width="120" height="40" as="geometry" />
        </mxCell>
      </root>
    </mxGraphModel>
  </diagram>
</mxfile>
